<?xml version="1.0" encoding="UTF-8"?>
<svg xmlns="http://www.w3.org/2000/svg" xmlns:xlink="http://www.w3.org/1999/xlink" width="64px" height="64px" viewBox="0 0 64 64" version="1.1">
<g id="surface1">
<path style="fill:none;stroke-width:1.5;stroke-linecap:round;stroke-linejoin:miter;stroke:rgb(16.470588%,20.784314%,23.921569%);stroke-opacity:1;stroke-miterlimit:4;" d="M 21.317871 7.141113 L 20.824219 6.28418 C 20.450684 5.636719 20.264648 5.312988 19.946777 5.184082 C 19.628906 5.055176 19.27002 5.15625 18.550781 5.359863 L 17.330566 5.704102 C 16.87207 5.80957 16.391602 5.749512 15.972656 5.53418 L 15.635742 5.34082 C 15.276855 5.11084 15 4.770996 14.847656 4.372559 L 14.513672 3.375 C 14.293945 2.71582 14.184082 2.384766 13.92334 2.197266 C 13.661133 2.008301 13.313965 2.008301 12.619629 2.008301 L 11.504883 2.008301 C 10.810547 2.008301 10.463379 2.008301 10.202637 2.197266 C 9.94043 2.384766 9.830566 2.71582 9.61084 3.375 L 9.276855 4.372559 C 9.124512 4.770996 8.849121 5.11084 8.48877 5.34082 L 8.151855 5.53418 C 7.734375 5.749512 7.252441 5.80957 6.793945 5.704102 L 5.57373 5.359863 C 4.855957 5.15625 4.495605 5.055176 4.179199 5.184082 C 3.861328 5.312988 3.673828 5.636719 3.301758 6.28418 L 2.808105 7.141113 C 2.458008 7.749023 2.282227 8.052246 2.317383 8.375977 C 2.351074 8.698242 2.585449 8.958984 3.052734 9.480469 L 4.083984 10.633301 C 4.335938 10.951172 4.514648 11.507812 4.514648 12.007324 C 4.514648 12.508301 4.335938 13.063477 4.083984 13.382812 L 3.052734 14.535645 C 2.585449 15.057129 2.351074 15.316406 2.317383 15.640137 C 2.282227 15.963867 2.458008 16.26709 2.808105 16.873535 L 3.301758 17.730469 C 3.673828 18.37793 3.861328 18.703125 4.179199 18.832031 C 4.495605 18.960938 4.855957 18.858398 5.57373 18.654785 L 6.793945 18.312012 C 7.252441 18.205078 7.734375 18.265137 8.15332 18.480469 L 8.48877 18.675293 C 8.849121 18.905273 9.124512 19.243652 9.276855 19.64209 L 9.61084 20.639648 C 9.830566 21.300293 9.94043 21.629883 10.202637 21.818848 C 10.463379 22.007812 10.810547 22.007812 11.504883 22.007812 L 12.619629 22.007812 C 13.313965 22.007812 13.661133 22.007812 13.92334 21.818848 C 14.184082 21.629883 14.293945 21.300293 14.513672 20.639648 L 14.847656 19.64209 C 15 19.243652 15.276855 18.905273 15.635742 18.675293 L 15.972656 18.480469 C 16.391602 18.265137 16.87207 18.205078 17.330566 18.312012 L 18.550781 18.654785 C 19.27002 18.858398 19.628906 18.960938 19.946777 18.832031 C 20.264648 18.703125 20.450684 18.37793 20.824219 17.730469 L 21.317871 16.873535 C 21.667969 16.26709 21.842285 15.963867 21.808594 15.640137 C 21.774902 15.316406 21.540527 15.057129 21.071777 14.535645 L 20.040527 13.382812 C 19.788574 13.063477 19.609863 12.508301 19.609863 12.007324 C 19.609863 11.507812 19.788574 10.951172 20.040527 10.633301 L 21.071777 9.480469 C 21.540527 8.958984 21.774902 8.698242 21.808594 8.375977 C 21.842285 8.052246 21.667969 7.749023 21.317871 7.141113 Z M 21.317871 7.141113 " transform="matrix(2.666667,0,0,2.666667,0,0)"/>
<path style="fill:none;stroke-width:1.5;stroke-linecap:butt;stroke-linejoin:miter;stroke:rgb(16.470588%,20.784314%,23.921569%);stroke-opacity:1;stroke-miterlimit:4;" d="M 15.52002 12 C 15.52002 13.933594 13.952637 15.499512 12.019043 15.499512 C 10.086914 15.499512 8.519531 13.933594 8.519531 12 C 8.519531 10.066406 10.086914 8.500488 12.019043 8.500488 C 13.952637 8.500488 15.52002 10.066406 15.52002 12 Z M 15.52002 12 " transform="matrix(2.666667,0,0,2.666667,0,0)"/>
</g>
</svg>
